<svg xmlns="http://www.w3.org/2000/svg" viewBox="0 0 164.69 131.88" xmlns:v="https://vecta.io/nano">
    <path
        d="M6.6 47.38c2.96-5.04 6.97-8.98 12.05-11.82 5.08-2.83 10.63-4.25 16.68-4.25 6.91 0 13.06 1.7 18.45 5.09 5.39 3.4 9.29 8.21 11.72 14.43H52.7c-1.68-3.42-4.02-5.98-7.01-7.66s-6.45-2.52-10.37-2.52c-4.3 0-8.13.97-11.49 2.9s-6 4.7-7.89 8.31c-1.9 3.61-2.85 7.82-2.85 12.61s.95 9 2.85 12.61 4.53 6.4 7.89 8.36 7.19 2.94 11.49 2.94c3.92 0 7.38-.84 10.37-2.52s5.33-4.23 7.01-7.66h12.8c-2.43 6.23-6.34 11.02-11.72 14.39-5.39 3.36-11.54 5.04-18.45 5.04-6.1 0-11.68-1.42-16.72-4.25s-9.05-6.77-12-11.82c-2.96-5.04-4.44-10.74-4.44-17.1s1.48-12.05 4.44-17.1zm105.05 49.69L96.7 71.1h-8.13v25.97H77.92V32.15h22.42c4.98 0 9.2.87 12.66 2.62 3.46 1.74 6.04 4.08 7.75 7.01s2.57 6.2 2.57 9.81a19.44 19.44 0 0 1-3.69 11.54c-2.46 3.46-6.24 5.81-11.35 7.05l16.07 26.9h-12.71zM88.58 62.6h11.77c3.98 0 6.99-.99 9.01-2.99 2.02-1.99 3.04-4.67 3.04-8.04s-1-5.99-2.99-7.89-5.01-2.85-9.06-2.85H88.58V62.6z"
        fill="#aaa" />
    <path d="M2.16 127.46h157.8V4.78H2.16" fill="none" stroke="#aaa" stroke-linejoin="round" stroke-width="6" />
</svg>