<svg xmlns="http://www.w3.org/2000/svg" viewBox="0 0 518.69 131.88">
    <path
        d="M6.6 47.38c2.96-5.04 6.97-8.98 12.05-11.82 5.08-2.83 10.63-4.25 16.68-4.25 6.91 0 13.06 1.7 18.45 5.09 5.39 3.4 9.29 8.21 11.72 14.43H52.7c-1.68-3.42-4.02-5.98-7.01-7.66s-6.45-2.52-10.37-2.52c-4.3 0-8.13.97-11.49 2.9s-6 4.7-7.89 8.31c-1.9 3.61-2.85 7.82-2.85 12.61s.95 9 2.85 12.61 4.53 6.4 7.89 8.36 7.19 2.94 11.49 2.94c3.92 0 7.38-.84 10.37-2.52s5.33-4.23 7.01-7.66h12.8c-2.43 6.23-6.34 11.02-11.72 14.39-5.39 3.36-11.54 5.04-18.45 5.04-6.1 0-11.68-1.42-16.72-4.25s-9.05-6.77-12-11.82c-2.96-5.04-4.44-10.74-4.44-17.1s1.48-12.05 4.44-17.1zm105.05 49.69L96.7 71.1h-8.13v25.97H77.92V32.15h22.42c4.98 0 9.2.87 12.66 2.62 3.46 1.74 6.04 4.08 7.75 7.01s2.57 6.2 2.57 9.81a19.44 19.44 0 0 1-3.69 11.54c-2.46 3.46-6.24 5.81-11.35 7.05l16.07 26.9h-12.71zM88.58 62.6h11.77c3.98 0 6.99-.99 9.01-2.99 2.02-1.99 3.04-4.67 3.04-8.04s-1-5.99-2.99-7.89-5.01-2.85-9.06-2.85H88.58V62.6z"
        fill='#fff' />
    <path d="M2.16 127.46h157.8V4.78H2.16" fill="none" stroke='#fff' strokeLinejoin="round" strokeWidth="6" />
    <path
        d="M235.13 65.01c-3.71 3.58-9.36 5.37-16.96 5.37h-12.52v27.19h-8.5V32.45h21.02c7.35 0 12.94 1.77 16.77 5.32s5.75 8.13 5.75 13.73-1.85 9.92-5.56 13.5zm-6.49-4.72c2.24-2.05 3.36-4.98 3.36-8.78 0-8.03-4.61-12.05-13.83-12.05h-12.52v23.92h12.52c4.73 0 8.22-1.03 10.46-3.08zm31.11-31.86v69.13h-8.5V28.43h8.5zm59.88 17.94v51.19h-8.5v-7.57c-1.62 2.62-3.88 4.66-6.77 6.12-2.9 1.46-6.09 2.2-9.58 2.2-3.99 0-7.57-.82-10.74-2.48-3.18-1.65-5.68-4.12-7.52-7.43-1.84-3.3-2.76-7.32-2.76-12.05V46.36h8.41v28.87c0 5.04 1.28 8.92 3.83 11.63s6.04 4.06 10.46 4.06 8.13-1.4 10.74-4.2 3.92-6.88 3.92-12.24V46.36h8.5zm47.13 2.06c3.33 1.93 5.81 4.36 7.43 7.29v-9.34h8.59V98.7c0 4.67-1 8.83-2.99 12.47s-4.84 6.49-8.55 8.55-8.02 3.08-12.94 3.08c-6.73 0-12.33-1.59-16.82-4.76-4.48-3.18-7.13-7.51-7.94-12.99h8.41c.93 3.11 2.86 5.62 5.79 7.52s6.45 2.85 10.56 2.85c4.67 0 8.49-1.46 11.44-4.39 2.96-2.93 4.44-7.04 4.44-12.33V87.96c-1.68 2.99-4.17 5.48-7.47 7.47s-7.16 2.99-11.58 2.99-8.67-1.12-12.38-3.36-6.62-5.39-8.73-9.44c-2.12-4.05-3.18-8.66-3.18-13.83s1.06-9.82 3.18-13.78c2.12-3.95 5.03-7.02 8.73-9.2 3.71-2.18 7.83-3.27 12.38-3.27s8.3.97 11.63 2.9zm5.09 13.36c-1.56-2.86-3.66-5.06-6.31-6.59s-5.56-2.29-8.73-2.29-6.07.75-8.69 2.24-4.7 3.68-6.26 6.54c-1.56 2.87-2.34 6.23-2.34 10.09s.78 7.33 2.34 10.23 3.64 5.11 6.26 6.63c2.62 1.53 5.51 2.29 8.69 2.29s6.09-.76 8.73-2.29c2.65-1.53 4.75-3.74 6.31-6.63 1.56-2.9 2.33-6.27 2.33-10.14s-.78-7.22-2.33-10.09zm25.6-25.41c-1.12-1.12-1.68-2.49-1.68-4.11s.56-2.99 1.68-4.11 2.49-1.68 4.11-1.68 2.88.56 3.97 1.68 1.63 2.49 1.63 4.11-.55 2.99-1.63 4.11a5.34 5.34 0 0 1-3.97 1.68c-1.55 0-2.99-.56-4.11-1.68zm8.22 9.99v51.19h-8.5V46.37h8.5zm54.56 4.72c3.86 3.77 5.79 9.2 5.79 16.3v30.17h-8.41V68.6c0-5.11-1.28-9.01-3.83-11.72s-6.04-4.06-10.46-4.06-8.05 1.4-10.7 4.2-3.97 6.88-3.97 12.24v28.31h-8.5V46.38h8.5v7.29c1.68-2.62 3.97-4.64 6.87-6.07s6.09-2.15 9.58-2.15c6.23 0 11.27 1.88 15.13 5.65zM487.5 96.4c-3.12-1.34-5.57-3.21-7.38-5.61s-2.8-5.15-2.99-8.27h8.78c.25 2.55 1.45 4.64 3.6 6.26s4.97 2.43 8.45 2.43c3.24 0 5.79-.72 7.66-2.15s2.8-3.24 2.8-5.42-1-3.91-2.99-5-5.08-2.16-9.25-3.22c-3.8-1-6.9-2.01-9.3-3.04s-4.45-2.55-6.17-4.58c-1.71-2.02-2.57-4.69-2.57-7.99 0-2.62.78-5.01 2.33-7.19 1.56-2.18 3.77-3.91 6.63-5.18 2.86-1.28 6.13-1.92 9.81-1.92 5.67 0 10.24 1.43 13.73 4.3s5.36 6.79 5.6 11.77h-8.5c-.19-2.68-1.26-4.83-3.22-6.45s-4.59-2.43-7.89-2.43c-3.05 0-5.48.65-7.29 1.96s-2.71 3.02-2.71 5.14c0 1.68.54 3.07 1.63 4.16s2.46 1.96 4.11 2.62c1.65.65 3.94 1.39 6.87 2.2 3.67 1 6.66 1.98 8.97 2.94 2.3.97 4.28 2.41 5.93 4.34s2.51 4.45 2.57 7.57c0 2.8-.78 5.33-2.34 7.57s-3.75 4-6.59 5.28c-2.83 1.28-6.09 1.92-9.76 1.92-3.92 0-7.44-.67-10.56-2.01z"
        fill='#fff' />
</svg>